<svg xmlns="http://www.w3.org/2000/svg" viewBox="0 0 100 100">
  <!-- Circuit branches -->
  <g fill="none" stroke="#7b61ff" stroke-width="4" stroke-linecap="round">
    <!-- Left branches -->
    <path d="M30 55 L30 40 L20 25"/>
    <path d="M30 40 L15 35"/>
    <path d="M30 55 L20 55 L10 45"/>
    <!-- Right branches -->
    <path d="M70 55 L70 40 L80 25"/>
    <path d="M70 40 L85 35"/>
    <path d="M70 55 L80 55 L90 45"/>
    <!-- Center top branch -->
    <path d="M50 35 L50 20"/>
    <!-- Bottom roots -->
    <path d="M40 75 L40 90 L30 95"/>
    <path d="M60 75 L60 90 L70 95"/>
  </g>
  <!-- Circuit dots -->
  <g fill="#7b61ff">
    <circle cx="20" cy="25" r="5"/>
    <circle cx="15" cy="35" r="4"/>
    <circle cx="10" cy="45" r="4"/>
    <circle cx="80" cy="25" r="5"/>
    <circle cx="85" cy="35" r="4"/>
    <circle cx="90" cy="45" r="4"/>
    <circle cx="50" cy="20" r="5"/>
    <circle cx="30" cy="95" r="4"/>
    <circle cx="70" cy="95" r="4"/>
  </g>
  <!-- House -->
  <path d="M50 30 L30 50 L30 75 L70 75 L70 50 Z" fill="#1a1a1a"/>
  <!-- Door -->
  <rect x="43" y="58" width="14" height="17" fill="white"/>
</svg>
